<?xml version="1.0" encoding="utf-8"?><svg viewBox="0 0 71 70" xmlns="http://www.w3.org/2000/svg" xmlns:xlink="http://www.w3.org/1999/xlink"><style>:root>svg{display:none}:root>svg:target{display:block}</style><svg fill="none" viewBox="0 0 70 70" id="Kind" xmlns="http://www.w3.org/2000/svg"><circle cx="35" cy="35" r="35" fill="#58BEBF" fill-opacity=".2"/><path d="M51.262 30.858h-7.384a3.972 3.972 0 00-3.971 3.972v11.193a3.972 3.972 0 003.971 3.972h8.286l1.4-16.634a2.31 2.31 0 00-2.302-2.503zM35.935 20.005h-1.843l-.712 8.828a4.828 4.828 0 01-4.812 4.439h-1.384V47.58h4.691v.102a2.309 2.309 0 002.31 2.312h5.05a6.086 6.086 0 01-1.471-3.972V34.83c0-1.857.832-3.521 2.143-4.644v-6.21a3.972 3.972 0 00-3.972-3.97zM17 31.837h8.04v17.179H17V31.837z" fill="#58BEBF"/></svg><svg fill="none" viewBox="0 0 70 70" id="authen" xmlns="http://www.w3.org/2000/svg"><circle cx="35" cy="35" r="35" fill="#58BEBF" fill-opacity=".2"/><path fill-rule="evenodd" clip-rule="evenodd" d="M29.425 40.104a5.538 5.538 0 015.532-5.532 5.538 5.538 0 015.532 5.532 5.538 5.538 0 01-5.532 5.532 5.538 5.538 0 01-5.532-5.532zm1.697.66l2.738 2.738 4.931-4.932-1.242-1.243-3.69 3.689-1.494-1.494-1.243 1.243z" fill="#58BEBF"/><path d="M40.577 23.423H38.38a3.423 3.423 0 00-6.846 0h-2.197v4.389h11.24v-4.389z" fill="#58BEBF"/><path fill-rule="evenodd" clip-rule="evenodd" d="M42.335 29.57v-6.147h3.539V50H24.04V23.423h3.54v6.146h14.755zM27.667 40.103c0 4.02 3.27 7.29 7.29 7.29s7.29-3.27 7.29-7.29-3.27-7.29-7.29-7.29-7.29 3.27-7.29 7.29z" fill="#58BEBF"/></svg><svg viewBox="0 0 70 70" id="buyers" xmlns="http://www.w3.org/2000/svg"><path fill-rule="evenodd" clip-rule="evenodd" d="M27.345 24.552l-3.039 2.754c2.153 2.683 5.068 4.903 8.643 5.613v4.161h4.102v-3.877c3.905-.267 7.867-3.213 8.531-7.128.927-5.315-3.734-8.496-8.531-9.971V8.048c2.072.215 4.406 1.876 6.092 3.32l2.544-3.217c-2.357-2.189-6.19-4.174-8.636-4.238V.007h-4.102v4.136c-3.223.69-5.874 3.252-6.305 6.393-.392 4.509 1.715 6.747 6.305 8.341v9.812c-3.595-.967-5.604-4.137-5.604-4.137zm3.356-13.412c.179-1.2 1.005-2.18 2.248-2.701v5.989c-2.298-.752-2.416-2.159-2.248-3.288zm6.35 17.937c2.56-.37 4.493-2.065 4.493-3.723 0-3.345-4.006-4.695-4.456-4.847a2.033 2.033 0 01-.037-.013v8.583zM62.94 56.477V48.97l.907.545 2.11-3.517-14.482-8.69-14.483 8.69 2.11 3.517.908-.545v7.507H29.99V48.97l.908.545 2.11-3.517-14.483-8.69-14.482 8.69 2.11 3.517.908-.545v7.507H0v4.102h70v-4.102h-7.06zm-42.364 0v-5.01h-4.101v5.01h-5.313v-9.968l7.363-4.418 7.364 4.418v9.968h-5.313zm32.95-5.01v5.01h5.312v-9.968l-7.363-4.418-7.364 4.418v9.968h5.313v-5.01h4.101z"/><path d="M0 65.891h70v4.102H0V65.89z"/></svg><svg fill="none" viewBox="0 0 71 70" id="entre" xmlns="http://www.w3.org/2000/svg"><circle cx="35.5" cy="35" r="35" fill="#F78434"/><path d="M39.75 20h6.75v7.5h-6.75V20zM24 20h6.75v7.5H24V20z" fill="#fff"/><ellipse cx="35.625" cy="41" rx="4.125" ry="3.75" fill="#fff"/><path fill-rule="evenodd" clip-rule="evenodd" d="M26.25 41.375c0-4.763 4.03-8.625 9-8.625s9 3.862 9 8.625S40.22 50 35.25 50s-9-3.862-9-8.625zm3.143 0c0 3.095 2.627 5.613 5.857 5.613 3.23 0 5.857-2.518 5.857-5.613 0-3.095-2.627-5.613-5.857-5.613-3.23 0-5.857 2.518-5.857 5.613z" fill="#fff"/><path d="M31.348 31.39a9.915 9.915 0 012.402-.713L32.14 29H25.5l3.602 3.75c.689-.55 1.44-1.005 2.246-1.36zM36.75 30.677a9.907 9.907 0 012.402.713c.806.355 1.557.81 2.246 1.36L45 29h-6.64l-1.61 1.677z" fill="#fff"/></svg><svg fill="none" viewBox="0 0 20 20" id="facebook" xmlns="http://www.w3.org/2000/svg"><mask id="ea" maskUnits="userSpaceOnUse" x="0" y="0" width="20" height="20"><path fill-rule="evenodd" clip-rule="evenodd" d="M.002 0H20v20H.002V0z" fill="#fff"/></mask><g mask="url(#ea)"><path fill-rule="evenodd" clip-rule="evenodd" d="M18.896 0H1.103C.493 0 0 .495 0 1.104v17.793C0 19.507.495 20 1.104 20h17.792c.61 0 1.104-.494 1.104-1.104V1.103C20 .493 19.506 0 18.896 0z" fill="#4267B2"/></g><path fill-rule="evenodd" clip-rule="evenodd" d="M13.809 20v-7.734h2.607l.39-3.028H13.81V7.31c0-.874.242-1.47 1.496-1.47h1.59v-2.7a21.366 21.366 0 00-2.33-.12c-2.304 0-3.881 1.407-3.881 3.99v2.228H8.086v3.028h2.598V20h3.125z" fill="#fff"/></svg><svg fill="none" viewBox="0 0 21 20" id="linkedin" xmlns="http://www.w3.org/2000/svg"><mask id="fa" maskUnits="userSpaceOnUse" x="0" y="0" width="6" height="20"><path fill-rule="evenodd" clip-rule="evenodd" d="M.035.001H5.07v19.974H.035V.001z" fill="#fff"/></mask><g mask="url(#fa)" fill-rule="evenodd" clip-rule="evenodd" fill="#069"><path d="M.297 19.975h4.48V6.497H.297v13.478zM2.566 0C1.034 0 .032 1.006.032 2.329c0 1.293.972 2.328 2.475 2.328h.03c1.562 0 2.534-1.035 2.534-2.328C5.042 1.006 4.1 0 2.566 0z"/></g><path fill-rule="evenodd" clip-rule="evenodd" d="M15.773 6.181c-2.377 0-3.442 1.306-4.038 2.225V6.497h-4.48v13.478h4.48V12.45c0-.403.03-.806.148-1.094.324-.804 1.06-1.638 2.298-1.638 1.621 0 2.27 1.236 2.27 3.048v7.21h4.479v-7.728c0-4.14-2.21-6.066-5.157-6.066z" fill="#069"/></svg><svg fill="none" viewBox="0 0 70 70" id="perf" xmlns="http://www.w3.org/2000/svg"><circle cx="35" cy="35" r="35" fill="#58BEBF" fill-opacity=".2"/><path fill-rule="evenodd" clip-rule="evenodd" d="M48.717 47.732V26.829l2.98-2.957v3.789h2.285V20h-7.718v2.268h3.817l-3.956 3.927-5.328-5.288-12.795 12.701-5.17-5.132-7.287 7.233 1.616 1.603 3.314-3.29v13.71h-5.379V50h39v-2.268h-5.379zm-6.093-21.804v21.804h-4.981V27.246l3.154-3.13 1.827 1.812zM28.002 36.816l-1.433-1.422v12.338h4.98V33.294l-3.547 3.522z" fill="#58BEBF"/></svg><svg viewBox="0 0 70 70" id="seller" xmlns="http://www.w3.org/2000/svg"><path fill-rule="evenodd" clip-rule="evenodd" d="M44.13 9.479H70v37.05H44.13V70H25.87V46.53H0V9.478h25.87V5.478L35 0l9.13 5.478v4zM35 4.783L29.972 7.8v1.679h10.056v-1.68L35 4.784zm5.028 61.115H29.972V46.53h10.056v19.368zM4.102 42.428h61.796V13.58H4.102v28.848z"/><path fill-rule="evenodd" clip-rule="evenodd" d="M27.071 33.25l-1.506 3.954-3.833-1.46 6.369-16.72 3.405-.004 6.314 16.732-3.837 1.449-1.491-3.95h-5.42zm1.562-4.101h2.311l-1.15-3.048-1.16 3.048z"/><path d="M48.262 32.51h-4.789V18.844h-4.102v17.767h8.891V32.51zM60.444 32.51h-5.71v-2.675h5.29v-4.101h-5.29v-2.675h5.71v-4.102h-9.811v17.654h9.811V32.51zM14.422 23.068c1.546-.686 3.87.982 5.114 2.102l2.544-3.217c-3.736-3.418-6.87-3.444-8.862-2.806-1.985.6-3.393 2.169-3.682 4.11-.278 1.864.523 3.656 2.089 4.677.271.177 2.143.977 4.389 1.82.835.307 1.687.859 1.576 1.482-.092.514-.808 1.274-2.054 1.274-2.014.117-3.507-1.525-4.624-2.874l-3.039 2.755c1.877 2.4 4.426 4.288 7.663 4.22 3.048 0 5.61-1.957 6.091-4.654.365-2.043-.545-4.706-4.194-6.052a72.429 72.429 0 01-3.658-1.476c-.37-.463-.23-1.003.647-1.361z"/></svg><svg fill="none" viewBox="0 0 25 20" id="twitter" xmlns="http://www.w3.org/2000/svg"><path fill-rule="evenodd" clip-rule="evenodd" d="M7.66 19.962c9.249 0 14.307-7.663 14.307-14.307 0-.218-.005-.434-.015-.65A10.226 10.226 0 0024.461 2.4c-.901.4-1.871.67-2.888.792A5.046 5.046 0 0023.784.412c-.971.576-2.047.994-3.193 1.22a5.029 5.029 0 00-8.569 4.586A14.276 14.276 0 011.658.964 5.017 5.017 0 00.977 3.49c0 1.745.888 3.285 2.237 4.186a4.989 4.989 0 01-2.277-.629v.064a5.03 5.03 0 004.034 4.93 5.047 5.047 0 01-2.271.086 5.034 5.034 0 004.697 3.492 10.088 10.088 0 01-6.245 2.153c-.406 0-.806-.024-1.2-.07a14.235 14.235 0 007.708 2.259" fill="#1DA1F2"/></svg><svg fill="none" viewBox="0 0 30 20" id="youtube" xmlns="http://www.w3.org/2000/svg"><mask id="ja" maskUnits="userSpaceOnUse" x="0" y="0" width="30" height="20"><path fill-rule="evenodd" clip-rule="evenodd" d="M.512 0h28.52v19.971H.512V0z" fill="#fff"/></mask><g mask="url(#ja)"><path fill-rule="evenodd" clip-rule="evenodd" d="M28.444 3.125A3.574 3.574 0 0025.931.611C23.698 0 14.77 0 14.77 0S5.842 0 3.61.588a3.647 3.647 0 00-2.514 2.537C.508 5.357.508 9.985.508 9.985s0 4.653.588 6.861A3.574 3.574 0 003.61 19.36c2.255.611 11.16.611 11.16.611s8.928 0 11.16-.587a3.574 3.574 0 002.515-2.514c.587-2.232.587-6.86.587-6.86s.023-4.653-.588-6.885z" fill="red"/></g><path fill-rule="evenodd" clip-rule="evenodd" d="M11.927 14.262l7.425-4.276-7.425-4.277v8.553z" fill="#fff"/></svg></svg>